<svg width="24" height="24" viewBox="0 0 24 24" fill="none" xmlns="http://www.w3.org/2000/svg">
  <circle cx="12" cy="12" r="12" fill="#1DB954"/>
  <path d="M17.5 10.5c-3.2-1.9-8.5-2.1-11.5-1.1-.5.1-.8-.2-.9-.6-.1-.4.2-.8.6-.9 3.5-1 9.2-.8 12.8 1.4.4.2.5.7.3 1-.2.4-.7.5-1.1.3l-.2-.1zm-.9 2.7c-.2.3-.6.4-.9.2-2.7-1.6-6.8-2.1-9.9-1.1-.4.1-.8-.1-.9-.5-.1-.4.1-.8.5-.9 3.6-1.1 8.1-.6 11.1 1.3.3.2.4.6.2.9l-.1.1zm-1 2.6c-.2.3-.5.4-.8.2-2.4-1.4-5.4-1.7-9-.9-.4.1-.7-.2-.8-.5-.1-.4.2-.7.5-.8 3.9-.9 7.2-.5 9.8 1.1.3.2.4.6.3.9z" fill="white"/>
</svg>
